<svg width="319" height="98" viewBox="0 0 319 98" fill="none" xmlns="http://www.w3.org/2000/svg">
<g opacity="0.9">
<path d="M82.88 9.70586V32.0332H93.6945L93.063 36.6231H77.0782V9.70586H82.88Z" fill="#217AB7"/>
<path d="M114.249 9.70586L113.618 13.8679H103.751V20.8695H112.355V24.9927H103.751V32.4221H114.328V36.6231H97.9488V9.70586H114.249Z" fill="#217AB7"/>
<path d="M134.036 36.6231L132.496 30.5939H123.932L122.392 36.6231H116.354L124.761 9.70586H131.826L140.193 36.6231H134.036ZM125.037 26.3541H131.391L128.194 13.9457L125.037 26.3541Z" fill="#217AB7"/>
<path d="M150.65 9.70586C154.912 9.70586 158.32 10.6653 160.872 12.5843C163.451 14.4773 164.74 17.9651 164.74 23.0478C164.74 28.0267 163.477 31.5404 160.951 33.5891C158.451 35.6117 155.241 36.6231 151.321 36.6231H143.506V9.70586H150.65ZM149.308 13.9068V32.4221H151.676C153.912 32.4221 155.636 31.7479 156.846 30.3994C158.083 29.0251 158.701 26.5745 158.701 23.0478C158.701 20.6102 158.385 18.7172 157.754 17.3687C157.149 16.0203 156.333 15.1126 155.307 14.6459C154.281 14.1532 153.031 13.9068 151.557 13.9068H149.308Z" fill="#217AB7"/>
<path d="M186.266 9.70586L185.634 13.8679H175.767V20.8695H184.371V24.9927H175.767V32.4221H186.345V36.6231H169.965V9.70586H186.266Z" fill="#217AB7"/>
<path d="M200.369 26.0818H197.409V36.6231H191.607V9.70586H200.132C203.789 9.70586 206.539 10.3801 208.381 11.7285C210.223 13.0511 211.144 15.0608 211.144 17.7577C211.144 19.5211 210.696 20.9732 209.802 22.1142C208.933 23.2552 207.578 24.2277 205.736 25.0316L212.801 36.6231H206.21L200.369 26.0818ZM197.409 22.0364H200.448C202 22.0364 203.171 21.6993 203.96 21.0251C204.75 20.3249 205.144 19.2358 205.144 17.7577C205.144 16.3833 204.723 15.3849 203.881 14.7626C203.066 14.1143 201.776 13.7901 200.013 13.7901H197.409V22.0364Z" fill="#217AB7"/>
<path d="M224.659 9.0835C226.633 9.0835 228.343 9.36875 229.79 9.93924C231.264 10.4838 232.619 11.3266 233.856 12.4676L231.093 15.6183C230.119 14.8404 229.146 14.2699 228.172 13.9068C227.199 13.5438 226.159 13.3622 225.054 13.3622C223.844 13.3622 222.87 13.6216 222.134 14.1402C221.423 14.6329 221.068 15.346 221.068 16.2796C221.068 16.9279 221.213 17.4595 221.502 17.8744C221.818 18.2893 222.357 18.6783 223.12 19.0413C223.883 19.4044 225.028 19.8193 226.554 20.286C229.264 21.1418 231.29 22.205 232.632 23.4757C233.974 24.7204 234.645 26.5097 234.645 28.8435C234.645 30.5032 234.224 31.9683 233.382 33.239C232.54 34.4837 231.317 35.4691 229.711 36.1952C228.106 36.8954 226.225 37.2454 224.067 37.2454C221.91 37.2454 219.989 36.9083 218.305 36.2341C216.621 35.5599 215.174 34.6393 213.963 33.4724L216.924 30.2439C217.976 31.1255 219.068 31.7998 220.2 32.2665C221.331 32.7074 222.568 32.9278 223.91 32.9278C225.33 32.9278 226.462 32.6037 227.304 31.9554C228.172 31.3071 228.606 30.3994 228.606 29.2325C228.606 28.5064 228.448 27.91 228.133 27.4432C227.843 26.9505 227.33 26.5097 226.593 26.1207C225.857 25.7317 224.791 25.3298 223.396 24.9149C220.423 24.0073 218.292 22.9181 217.003 21.6475C215.74 20.3768 215.108 18.7172 215.108 16.6686C215.108 15.1645 215.516 13.842 216.332 12.701C217.147 11.5341 218.279 10.6394 219.726 10.017C221.173 9.39468 222.818 9.0835 224.659 9.0835Z" fill="#217AB7"/>
<path d="M254.278 36.6231V24.8371H245.24V36.6231H239.438V9.70586H245.24V20.3249H254.278V9.70586H260.08V36.6231H254.278Z" fill="#217AB7"/>
<path d="M272.431 9.70586V36.6231H266.629V9.70586H272.431Z" fill="#217AB7"/>
<path d="M287.467 9.70586C291.019 9.70586 293.769 10.4319 295.716 11.8841C297.689 13.3363 298.676 15.5016 298.676 18.3801C298.676 21.3881 297.702 23.6572 295.755 25.1872C293.808 26.6912 291.203 27.4432 287.94 27.4432H284.822V36.6231H279.02V9.70586H287.467ZM287.467 23.2423C289.151 23.2423 290.44 22.8663 291.335 22.1142C292.229 21.3622 292.677 20.1175 292.677 18.3801C292.677 15.346 290.914 13.829 287.388 13.829H284.822V23.2423H287.467Z" fill="#217AB7"/>
</g>
<g opacity="0.6">
<path d="M86.4636 49.2497V87.7029H78.2951V49.2497H86.4636ZM108.302 49.2497L95.4657 66.587L109.302 87.7029H99.7444L86.797 67.1982L99.5777 49.2497H108.302Z" fill="#217AB7"/>
<path d="M121.031 49.2497V87.7029H112.862V49.2497H121.031Z" fill="#217AB7"/>
<path d="M158.203 87.7029H147.701L135.476 57.1959C135.809 59.8262 136.068 62.3082 136.254 64.6421C136.476 66.9389 136.587 69.6432 136.587 72.755V87.7029H129.196V49.2497H139.477L151.924 79.8122C151.183 74.8481 150.812 70.2915 150.812 66.1424V49.2497H158.203V87.7029Z" fill="#217AB7"/>
<path d="M189.264 49.2497L188.375 55.1955H174.483V65.1978H186.597V71.088H174.483V81.7015H189.375V87.7029H166.314V49.2497H189.264Z" fill="#217AB7"/>
<path d="M221.178 49.2497L220.289 55.64H210.564V87.7029H202.396V55.64H192.171V49.2497H221.178Z" fill="#217AB7"/>
<path d="M233.524 49.2497V87.7029H225.355V49.2497H233.524Z" fill="#217AB7"/>
<path d="M256.86 48.3606C259.267 48.3606 261.361 48.7125 263.139 49.4164C264.917 50.0832 266.658 51.1205 268.362 52.5282L264.306 57.2515C262.083 55.4363 259.749 54.5287 257.304 54.5287C254.563 54.5287 252.377 55.6585 250.747 57.9183C249.154 60.141 248.358 63.6418 248.358 68.4207C248.358 73.0884 249.154 76.5522 250.747 78.812C252.377 81.0347 254.581 82.146 257.36 82.146C258.804 82.146 260.12 81.8867 261.305 81.3681C262.49 80.8124 263.731 80.0345 265.028 79.0342L268.807 83.7575C267.436 85.1652 265.732 86.3322 263.694 87.2583C261.694 88.1474 259.471 88.592 257.026 88.592C253.581 88.592 250.562 87.814 247.969 86.2581C245.375 84.7022 243.356 82.4239 241.912 79.4232C240.467 76.3855 239.745 72.718 239.745 68.4207C239.745 64.2346 240.485 60.6412 241.967 57.6405C243.449 54.6028 245.487 52.3059 248.08 50.75C250.673 49.1571 253.6 48.3606 256.86 48.3606Z" fill="#217AB7"/>
<path d="M284.617 48.3606C287.396 48.3606 289.803 48.7681 291.841 49.5831C293.916 50.361 295.823 51.565 297.565 53.195L293.675 57.696C292.304 56.5847 290.933 55.7697 289.563 55.251C288.192 54.7324 286.729 54.4731 285.173 54.4731C283.469 54.4731 282.098 54.8435 281.061 55.5845C280.061 56.2883 279.56 57.3071 279.56 58.6407C279.56 59.5668 279.764 60.3263 280.172 60.919C280.616 61.5117 281.376 62.0674 282.45 62.586C283.524 63.1047 285.136 63.6974 287.284 64.3642C291.1 65.5867 293.953 67.1056 295.842 68.9208C297.731 70.699 298.676 73.2551 298.676 76.5892C298.676 78.9601 298.083 81.0532 296.898 82.8684C295.712 84.6466 293.99 86.0543 291.73 87.0916C289.47 88.0918 286.821 88.592 283.784 88.592C280.746 88.592 278.042 88.1104 275.671 87.1472C273.3 86.184 271.262 84.8689 269.558 83.2018L273.726 78.5897C275.208 79.8492 276.745 80.8124 278.338 81.4792C279.931 82.109 281.672 82.4239 283.561 82.4239C285.562 82.4239 287.155 81.9608 288.34 81.0347C289.563 80.1085 290.174 78.812 290.174 77.1449C290.174 76.1076 289.952 75.2556 289.507 74.5888C289.1 73.8849 288.377 73.2551 287.34 72.6995C286.303 72.1438 284.802 71.5696 282.839 70.9768C278.653 69.6803 275.652 68.1243 273.837 66.3091C272.059 64.4939 271.17 62.123 271.17 59.1964C271.17 57.0478 271.744 55.1584 272.892 53.5284C274.041 51.8614 275.634 50.5833 277.671 49.6942C279.709 48.8051 282.024 48.3606 284.617 48.3606Z" fill="#217AB7"/>
</g>
<path opacity="0.6" fill-rule="evenodd" clip-rule="evenodd" d="M67.8233 18.8964C67.8233 23.8538 63.8045 27.8726 58.847 27.8726C56.9823 27.8726 55.0134 28.2008 53.6948 29.5194L39.6723 43.5419C38.7727 41.7129 37.42 40.1471 35.7605 38.9908L48.0885 26.6629C49.9032 24.8481 50.0389 21.9987 49.8868 19.4368C49.8762 19.258 49.8708 19.0779 49.8708 18.8964C49.8708 13.939 53.8896 9.92017 58.847 9.92017C63.8045 9.92017 67.8233 13.939 67.8233 18.8964ZM33.5995 56.4826L30.23 53.1131C29.0615 51.9446 29.0615 50.0501 30.23 48.8816C30.2654 48.8462 30.2654 48.7883 30.23 48.7528C29.0615 47.5843 29.0615 45.6898 30.23 44.5214L33.5994 41.1519C35.3453 42.2185 36.6984 43.8648 37.3911 45.8231L34.4614 48.7528C34.4259 48.7883 34.4259 48.8462 34.4614 48.8816L37.3911 51.8113C36.6984 53.7697 35.3453 55.416 33.5995 56.4826ZM35.7606 58.6437L48.0885 70.9716C49.9032 72.7863 50.0389 75.6357 49.8868 78.1976C49.8762 78.3764 49.8708 78.5565 49.8708 78.738C49.8708 83.6954 53.8896 87.7142 58.847 87.7142C63.8045 87.7142 67.8233 83.6954 67.8233 78.738C67.8233 73.7805 63.8045 69.7617 58.847 69.7617C56.9823 69.7617 55.0134 69.4336 53.6948 68.115L39.6723 54.0925C38.7728 55.9215 37.42 57.4874 35.7606 58.6437Z" fill="#217AB7"/>
<path opacity="0.9" fill-rule="evenodd" clip-rule="evenodd" d="M35.223 25.2936C33.5447 26.9457 31.9183 28.9364 31.9183 31.2915V36.4221C31.9183 36.7009 31.9411 36.9745 31.9841 37.2431C31.008 36.9859 29.9832 36.8489 28.9263 36.8489C27.8694 36.8489 26.8445 36.9859 25.8684 37.2431C25.9114 36.9745 25.9342 36.7009 25.9342 36.4221V31.2915C25.9342 28.9364 24.3078 26.9457 22.6295 25.2936C20.9755 23.6654 19.95 21.4007 19.95 18.8964C19.95 13.939 23.9688 9.92017 28.9263 9.92017C33.8837 9.92017 37.9025 13.939 37.9025 18.8964C37.9025 21.4007 36.877 23.6654 35.223 25.2936ZM20.95 52.9386C21.3881 53.7847 21.9568 54.5522 22.6295 55.2144C24.2498 56.8094 26.4731 57.7935 28.9263 57.7935C31.3679 57.7935 33.5818 56.8186 35.2001 55.2369C35.2077 55.2294 35.2154 55.2219 35.223 55.2144C36.877 53.5862 37.9025 51.3215 37.9025 48.8172C37.9025 47.6069 37.663 46.4525 37.2287 45.399C36.7645 44.2725 36.0776 43.2613 35.223 42.42C33.6028 40.8251 31.3794 39.841 28.9263 39.841C23.9689 39.841 19.9501 43.8598 19.9501 48.8172C19.9501 50.303 20.311 51.7044 20.95 52.9386ZM31.9841 60.3914C31.008 60.6486 29.9831 60.7856 28.9263 60.7856C27.8694 60.7856 26.8446 60.6486 25.8685 60.3914C25.9114 60.6599 25.9342 60.9335 25.9342 61.2122V66.3429C25.9342 68.6979 24.3078 70.6887 22.6295 72.3408C20.9755 73.9689 19.95 76.2337 19.95 78.738C19.95 83.6954 23.9688 87.7142 28.9263 87.7142C31.4305 87.7142 33.6953 86.6887 35.3234 85.0347C36.9756 83.3564 38.9663 81.7301 41.3213 81.7301H46.452C48.807 81.7301 50.7977 83.3564 52.4498 85.0347C54.078 86.6887 56.3428 87.7142 58.847 87.7142C63.8045 87.7142 67.8233 83.6954 67.8233 78.738C67.8233 73.7805 63.8045 69.7617 58.847 69.7617C56.3428 69.7617 54.078 70.7873 52.4498 72.4412C50.7977 74.1196 48.807 75.7459 46.452 75.7459H41.3213C38.9663 75.7459 36.9756 74.1197 35.3235 72.4413C35.2903 72.4075 35.2567 72.374 35.2229 72.3407C33.5446 70.6886 31.9183 68.698 31.9183 66.3429V61.2122C31.9183 60.9335 31.9411 60.6599 31.9841 60.3914Z" fill="#217AB7"/>
<circle opacity="0.6" cx="28.9292" cy="48.8162" r="8.9764" fill="#B8405F"/>
</svg>
