<?xml version="1.0" standalone="no"?>
<!DOCTYPE svg PUBLIC "-//W3C//DTD SVG 20010904//EN"
 "http://www.w3.org/TR/2001/REC-SVG-20010904/DTD/svg10.dtd">
<svg version="1.0" xmlns="http://www.w3.org/2000/svg"
 width="260.000000pt" height="260.000000pt" viewBox="0 0 260.000000 260.000000"
 preserveAspectRatio="xMidYMid meet">
<metadata>
Created by potrace 1.11, written by Peter Selinger 2001-2013
</metadata>
<g transform="translate(0.000000,260.000000) scale(0.100000,-0.100000)"
fill="#000000" stroke="none">
<path d="M766 2504 c-68 -22 -147 -102 -171 -173 -22 -67 -16 -159 13 -216 11
-22 41 -62 66 -90 78 -83 92 -123 91 -246 l-1 -106 95 0 96 0 1 112 c0 102 2
116 26 156 14 24 45 64 68 89 57 62 82 113 88 186 12 159 -103 291 -262 300
-37 2 -80 -2 -110 -12z"/>
<path d="M1715 2505 c-39 -12 -118 -55 -102 -55 5 0 -7 -16 -27 -35 -33 -31
-41 -46 -37 -67 0 -5 -3 -8 -9 -8 -23 0 -33 -147 -11 -173 13 -15 13 -18 1
-15 -17 4 -20 -30 -5 -51 7 -11 7 -13 -2 -7 -13 7 -16 -3 -16 -46 0 -10 -3
-15 -8 -12 -4 2 -12 -4 -18 -14 -5 -10 -41 -49 -80 -87 -38 -38 -67 -73 -65
-77 3 -5 1 -7 -4 -6 -12 4 -162 -144 -155 -154 2 -5 1 -7 -4 -6 -10 4 -72 -51
-85 -76 -8 -16 -7 -18 6 -13 9 4 15 1 13 -6 -1 -7 4 -11 10 -10 7 2 12 0 11
-5 -2 -13 14 -42 24 -42 7 0 7 5 0 13 -8 10 -5 16 11 27 19 11 20 11 11 -1
-16 -19 -12 -54 8 -78 9 -11 13 -23 10 -27 -4 -5 1 -2 10 5 10 7 15 17 12 22
-3 5 0 8 8 7 7 -2 12 3 10 10 -1 8 2 11 8 7 5 -3 13 1 16 9 3 9 10 13 15 10 5
-3 9 0 9 5 0 6 13 23 30 37 16 15 27 31 23 37 -3 6 -1 7 5 3 6 -3 17 2 24 11
7 10 32 35 56 56 23 20 39 37 35 37 -5 0 0 5 10 11 9 6 15 15 11 20 -3 5 0 8
8 7 7 -2 12 3 10 10 -1 6 3 11 10 10 7 -2 12 7 13 19 0 12 3 25 7 29 4 3 6 -3
3 -15 -2 -11 0 -21 6 -21 5 0 9 6 9 13 0 7 9 19 21 27 28 20 107 99 103 103
-2 1 5 3 14 4 18 1 65 7 147 18 28 4 56 12 64 19 12 9 13 8 7 -2 -7 -11 -4
-11 13 0 12 7 21 16 21 21 0 4 5 5 12 1 7 -5 9 -2 5 9 -4 10 -2 14 7 11 26
-10 103 84 92 112 -3 8 -2 12 4 9 11 -7 25 59 15 74 -3 6 -1 11 5 11 8 0 8 6
0 20 -8 15 -8 20 1 20 8 0 9 4 0 13 -6 8 -8 17 -4 20 3 4 1 7 -6 7 -7 0 -10 4
-7 8 7 12 -31 92 -44 92 -6 0 -8 5 -4 12 5 8 2 9 -10 5 -9 -4 -15 -3 -12 2 7
11 -28 43 -37 34 -4 -3 -7 -1 -7 5 0 7 -6 12 -14 12 -8 0 -17 6 -19 13 -3 6
-6 3 -7 -8 -1 -19 -2 -18 -10 3 -7 15 -18 22 -40 23 -16 1 -36 2 -42 3 -7 1
-16 -3 -20 -9 -5 -6 -8 -5 -8 4 0 11 -3 11 -17 0 -11 -10 -14 -10 -9 -1 4 6 6
12 4 11 -2 -1 -21 -7 -43 -14z m11 -30 c1 -14 -2 -25 -6 -25 -6 0 -7 36 -1 48
4 7 6 -1 7 -23z m116 10 c2 3 5 -2 5 -10 0 -8 -6 -16 -13 -19 -9 -3 -11 1 -7
11 4 10 2 14 -4 10 -5 -3 -10 0 -10 8 0 10 4 12 12 5 7 -5 14 -8 17 -5z m25
-7 c-3 -8 -6 -5 -6 6 -1 11 2 17 5 13 3 -3 4 -12 1 -19z m-177 -12 c0 -2 -9
-6 -20 -9 -11 -3 -18 -1 -14 4 5 9 34 13 34 5z m16 -28 c3 -4 -1 -5 -10 -4 -8
1 -18 5 -22 8 -3 4 1 5 10 4 8 -1 18 -5 22 -8z m109 2 c3 -6 -1 -7 -9 -4 -18
7 -21 14 -7 14 6 0 13 -4 16 -10z m65 0 c-18 -12 -30 -13 -30 -2 0 4 10 9 22
9 18 2 20 0 8 -7z m-103 -16 c-3 -3 -12 -4 -19 -1 -8 3 -5 6 6 6 11 1 17 -2
13 -5z m184 -17 c-10 -9 -11 -8 -5 6 3 10 9 15 12 12 3 -3 0 -11 -7 -18z
m-311 -10 c0 -6 -3 -7 -7 -4 -3 4 -11 3 -17 -3 -8 -6 -12 -3 -12 9 0 12 6 17
18 13 10 -2 18 -9 18 -15z m57 1 c-3 -8 -6 -5 -6 6 -1 11 2 17 5 13 3 -3 4
-12 1 -19z m63 7 c0 -1 -8 -5 -18 -7 -11 -3 -19 0 -19 7 0 7 8 10 19 7 10 -2
18 -6 18 -7z m35 -4 c3 -5 2 -12 -3 -15 -5 -3 -9 1 -9 9 0 17 3 19 12 6z m127
-18 c-10 -4 -10 -8 0 -21 12 -15 11 -16 -4 -3 -19 14 -15 32 5 30 8 0 8 -2 -1
-6z m-106 -28 c1 -9 -4 -11 -14 -8 -9 4 -13 2 -9 -4 3 -5 0 -10 -8 -10 -10 0
-12 4 -5 12 5 7 7 15 3 19 -4 4 1 4 11 0 15 -6 17 -4 11 7 -5 8 -4 11 0 6 5
-4 10 -14 11 -22z m37 4 c-4 -15 -8 -17 -14 -8 -6 11 4 28 18 29 0 0 -1 -9 -4
-21z m165 -4 c-3 -3 -9 2 -12 12 -6 14 -5 15 5 6 7 -7 10 -15 7 -18z m-430 1
c-7 -8 -15 -12 -17 -11 -5 6 10 25 20 25 5 0 4 -6 -3 -14z m158 1 c4 -3 -4 -4
-16 -2 -30 6 -40 16 -12 12 12 -2 24 -6 28 -10z m130 -2 c-1 -8 -5 -17 -8 -21
-5 -4 -4 16 1 34 3 9 9 -1 7 -13z m-201 -4 c3 -5 2 -12 -3 -15 -5 -3 -9 1 -9
9 0 17 3 19 12 6z m40 -34 c1 -15 -2 -27 -7 -27 -4 0 -6 11 -4 24 2 14 0 27
-5 30 -5 2 -4 3 3 2 7 -1 13 -14 13 -29z m242 21 c-2 -7 0 -21 5 -30 6 -13 5
-16 -5 -12 -14 5 -18 54 -4 54 5 0 7 -6 4 -12z m60 -12 c0 -8 -6 -12 -15 -9
-11 5 -11 7 0 14 7 5 13 9 14 9 0 0 1 -6 1 -14z m-426 -23 c-12 -20 -14 -14
-5 12 4 9 9 14 11 11 3 -2 0 -13 -6 -23z m-52 -33 c0 -10 -3 -8 -9 5 -12 27
-12 43 0 25 5 -8 9 -22 9 -30z m100 18 c-8 -15 -13 -17 -25 -7 -8 6 -14 14
-14 16 0 3 8 -1 17 -8 14 -12 16 -12 11 2 -4 9 -1 16 7 16 11 0 11 -5 4 -19z
m128 16 c-3 -3 -12 -4 -19 -1 -8 3 -5 6 6 6 11 1 17 -2 13 -5z m73 -4 c0 -5
-4 -10 -10 -10 -5 0 -10 5 -10 10 0 6 5 10 10 10 6 0 10 -4 10 -10z m78 -14
c-2 -1 -10 -7 -19 -14 -13 -9 -16 -9 -16 3 0 8 5 11 10 8 7 -4 8 1 3 12 -5 15
-4 16 9 5 9 -7 14 -13 13 -14z m86 16 c3 -5 -1 -9 -9 -9 -8 0 -12 4 -9 9 3 4
7 8 9 8 2 0 6 -4 9 -8z m-353 -35 c-10 -9 -11 -8 -5 6 3 10 9 15 12 12 3 -3 0
-11 -7 -18z m109 17 c0 -8 -19 -13 -24 -6 -3 5 1 9 9 9 8 0 15 -2 15 -3z m38
-15 c9 -13 9 -16 -3 -16 -8 0 -11 5 -8 10 4 7 -1 8 -12 3 -15 -5 -16 -4 -5 9
7 9 13 14 14 13 1 -2 7 -10 14 -19z m232 11 c-8 -5 -19 -10 -25 -10 -5 0 -3 5
5 10 8 5 20 10 25 10 6 0 3 -5 -5 -10z m-347 -13 c3 -8 -1 -14 -8 -14 -7 0
-11 6 -8 14 3 7 6 13 8 13 2 0 5 -6 8 -13z m234 -12 c0 -8 -4 -12 -9 -9 -5 3
-6 10 -3 15 9 13 12 11 12 -6z m39 -8 c1 -9 -1 -19 -6 -22 -5 -3 -7 3 -6 12 2
10 -2 22 -8 26 -7 6 -6 7 3 5 8 -2 15 -12 17 -21z m-354 -1 c11 6 11 5 0 -8
-10 -13 -10 -17 0 -21 7 -3 3 -4 -8 -4 -15 1 -20 6 -16 16 3 8 1 12 -5 8 -5
-3 -10 0 -10 8 0 11 4 12 13 4 7 -6 19 -7 26 -3z m33 5 c3 -5 2 -12 -3 -15 -5
-3 -9 1 -9 9 0 17 3 19 12 6z m123 -16 c-3 -3 -9 2 -12 12 -6 14 -5 15 5 6 7
-7 10 -15 7 -18z m118 -2 c-2 -9 -9 -19 -17 -21 -9 -2 -10 -1 -3 5 6 4 10 16
8 26 -1 9 1 15 6 12 5 -3 7 -13 6 -22z m-162 9 c3 -5 -1 -9 -9 -9 -8 0 -12 4
-9 9 3 4 7 8 9 8 2 0 6 -4 9 -8z m122 -17 c1 -8 -3 -18 -8 -22 -7 -3 -8 -1 -4
5 4 7 1 12 -6 13 -10 0 -10 2 0 6 6 2 9 10 5 16 -3 7 -2 8 2 4 5 -4 10 -14 11
-22z m-103 -13 c3 7 4 3 4 -8 -1 -15 -6 -20 -16 -16 -8 3 -12 1 -8 -5 3 -5 0
-10 -8 -10 -11 0 -12 4 -4 13 6 7 7 19 3 26 -6 11 -5 11 8 0 13 -10 17 -10 21
0z m243 -17 c1 -9 -4 -11 -14 -8 -9 4 -13 2 -9 -4 3 -5 0 -10 -8 -10 -10 0
-12 4 -5 12 5 7 7 15 3 19 -4 4 1 4 11 0 15 -6 17 -4 11 7 -5 8 -4 11 0 6 5
-4 10 -14 11 -22z m41 19 c-3 -4 3 -14 15 -24 17 -13 18 -17 5 -17 -9 0 -13 5
-10 10 4 6 -1 8 -11 4 -10 -4 -15 -3 -11 3 3 6 0 10 -7 10 -9 0 -9 3 2 10 17
11 26 13 17 4z m-112 -13 c-3 -2 -16 -6 -28 -8 -15 -2 -18 0 -9 5 14 9 45 12
37 3z m-270 -63 c0 -27 -5 -45 -12 -45 -6 0 -9 7 -5 15 10 27 9 67 -2 75 -7 5
-6 7 4 4 10 -2 15 -17 15 -49z m215 46 c0 -8 -19 -13 -24 -6 -3 5 1 9 9 9 8 0
15 -2 15 -3z m-47 -19 c9 2 17 -1 17 -7 0 -5 -6 -8 -12 -5 -7 2 -20 1 -28 -4
-11 -5 -16 -2 -16 11 0 12 4 16 11 11 5 -5 18 -7 28 -6z m112 -5 c-3 -4 0 -11
5 -13 6 -3 5 -4 -1 -3 -7 1 -13 10 -15 19 -1 9 2 15 7 11 5 -3 7 -9 4 -14z
m-360 1 c3 -5 2 -12 -3 -15 -5 -3 -9 1 -9 9 0 17 3 19 12 6z m302 -5 c0 -8 -6
-12 -15 -9 -11 5 -11 7 0 14 7 5 13 9 14 9 0 0 1 -6 1 -14z m30 -8 c-3 -8 -6
-5 -6 6 -1 11 2 17 5 13 3 -3 4 -12 1 -19z m117 10 c-3 -4 -9 -8 -15 -8 -5 0
-9 4 -9 8 0 5 7 9 15 9 8 0 12 -4 9 -9z m-322 -30 c-2 -10 -6 -18 -7 -18 -1 0
-5 8 -7 18 -3 11 0 19 7 19 7 0 10 -8 7 -19z m-101 -30 c-10 -11 -11 -9 -5 6
5 12 4 17 -3 13 -5 -3 -10 1 -10 9 0 13 2 13 16 0 12 -13 13 -18 2 -28z m76
17 c0 -8 -4 -12 -9 -9 -5 3 -6 10 -3 15 9 13 12 11 12 -6z m268 5 c3 -6 -1 -7
-9 -4 -18 7 -21 14 -7 14 6 0 13 -4 16 -10z m-202 -35 c9 2 17 -1 17 -7 0 -5
-6 -8 -12 -5 -7 2 -20 1 -28 -4 -11 -5 -16 -2 -16 11 0 12 4 16 11 11 5 -5 18
-7 28 -6z m157 -8 c0 -6 -3 -7 -7 -4 -3 4 -11 3 -17 -3 -8 -6 -12 -3 -12 9 0
12 6 17 18 13 10 -2 18 -9 18 -15z m-316 5 c3 -5 -1 -9 -9 -9 -8 0 -12 4 -9 9
3 4 7 8 9 8 2 0 6 -4 9 -8z m31 -2 c-3 -5 -1 -10 6 -10 7 0 10 -3 6 -6 -9 -9
-28 6 -22 17 4 5 8 9 11 9 3 0 2 -4 -1 -10z m367 -8 c4 -12 -1 -18 -13 -18
-12 0 -15 4 -9 12 6 6 7 14 3 17 -3 4 -2 7 4 7 6 0 13 -8 15 -18z m-169 -19
c-3 -7 -6 -13 -8 -13 -2 0 -5 6 -8 13 -3 8 1 14 8 14 7 0 11 -6 8 -14z m-260
-12 c3 -13 1 -18 -9 -14 -7 2 -10 11 -7 19 7 19 10 18 16 -5z m24 4 c0 -8 -4
-12 -9 -9 -5 3 -6 10 -3 15 9 13 12 11 12 -6z m259 0 c-1 -8 -5 -17 -8 -21 -5
-4 -4 16 1 34 3 9 9 -1 7 -13z m34 -10 c11 -13 10 -14 -4 -9 -9 3 -16 10 -16
15 0 13 6 11 20 -6z m67 0 c0 -8 -4 -12 -9 -9 -5 3 -6 10 -3 15 9 13 12 11 12
-6z m-280 -17 c-2 -7 -1 -20 4 -28 5 -11 2 -16 -11 -16 -12 0 -16 4 -11 11 5
5 7 18 6 28 -2 9 1 17 7 17 5 0 8 -6 5 -12z m159 -26 c-2 -9 -8 -17 -15 -18
-6 -1 -7 0 -2 2 5 3 7 17 5 32 -3 19 -2 23 5 13 5 -7 8 -21 7 -29z m-276 21
c0 -1 -8 -7 -18 -12 -13 -7 -19 -6 -19 2 0 7 9 13 19 13 10 0 18 -1 18 -3z
m61 -35 c-10 -11 -11 -9 -5 6 5 12 4 17 -3 13 -5 -3 -10 1 -10 9 0 13 2 13 16
0 12 -13 13 -18 2 -28z m116 20 c-3 -8 -6 -5 -6 6 -1 11 2 17 5 13 3 -3 4 -12
1 -19z m30 0 c-3 -8 -6 -5 -6 6 -1 11 2 17 5 13 3 -3 4 -12 1 -19z m29 -14 c1
-9 0 -13 -4 -10 -3 4 -7 14 -8 22 -1 9 0 13 4 10 3 -4 7 -14 8 -22z m95 3
c-10 -9 -11 -8 -5 6 3 10 9 15 12 12 3 -3 0 -11 -7 -18z m-361 -27 c8 -5 11
-10 5 -10 -5 0 -17 5 -25 10 -8 5 -10 10 -5 10 6 0 17 -5 25 -10z m50 2 c0 -5
-7 -9 -15 -9 -8 0 -12 4 -9 9 3 4 9 8 15 8 5 0 9 -4 9 -8z m-98 -31 c-3 -8 -1
-12 5 -8 5 3 10 0 10 -8 0 -11 -4 -12 -14 -4 -9 8 -17 8 -26 0 -10 -8 -14 -7
-14 4 0 8 5 11 10 8 6 -4 8 0 5 8 -4 10 1 15 12 15 11 0 16 -5 12 -15z m122
11 c-6 -4 -10 -19 -9 -34 1 -15 -1 -25 -5 -23 -4 2 -6 17 -4 32 3 35 2 33 17
33 8 0 8 -3 1 -8z m32 -18 c1 -9 0 -13 -4 -10 -3 4 -7 14 -8 22 -1 9 0 13 4
10 3 -4 7 -14 8 -22z m-201 -44 c2 -12 1 -20 -2 -16 -4 4 -8 16 -10 28 -4 28
6 18 12 -12z m118 6 c9 1 15 -2 11 -7 -3 -5 -10 -7 -15 -4 -5 4 -9 0 -10 -7 0
-10 -2 -11 -6 0 -3 9 -9 10 -17 3 -9 -8 -13 -7 -13 4 0 8 4 12 9 9 4 -3 8 1 8
8 0 9 3 10 8 2 4 -6 15 -10 25 -8z m-103 -42 c0 -8 -19 -13 -24 -6 -3 5 1 9 9
9 8 0 15 -2 15 -3z m70 0 c0 -8 -19 -13 -24 -6 -3 5 1 9 9 9 8 0 15 -2 15 -3z
m-166 -26 c-5 -7 -2 -9 8 -5 17 6 19 -16 3 -30 -4 -5 -5 -2 0 6 6 11 4 13 -7
8 -11 -4 -15 -1 -13 11 5 23 4 22 11 22 3 0 2 -5 -2 -12z m124 -5 c-6 -7 -12
-13 -13 -13 -2 0 -5 6 -8 13 -3 7 3 13 14 13 13 0 15 -3 7 -13z m-76 -21 c3
-11 0 -19 -7 -19 -7 0 -10 8 -7 19 2 10 6 18 7 18 1 0 5 -8 7 -18z m102 10 c3
-5 -1 -9 -9 -9 -8 0 -12 4 -9 9 3 4 7 8 9 8 2 0 6 -4 9 -8z m-148 -49 c-2 -9
-9 -19 -17 -21 -9 -2 -10 -1 -3 5 6 4 10 16 8 26 -1 9 1 15 6 12 5 -3 7 -13 6
-22z m125 4 c-10 -9 -11 -8 -5 6 3 10 9 15 12 12 3 -3 0 -11 -7 -18z m-161 -2
c0 -1 -8 -5 -18 -7 -11 -3 -19 0 -19 7 0 7 8 10 19 7 10 -2 18 -6 18 -7z m117
-25 c1 -11 -2 -22 -6 -24 -6 -4 -7 26 -2 42 3 8 7 -1 8 -18z m20 -12 c-3 -8
-6 -5 -6 6 -1 11 2 17 5 13 3 -3 4 -12 1 -19z m-95 -30 c-2 -10 -9 -18 -15
-18 -6 0 -7 3 -4 7 4 3 3 11 -3 17 -6 8 -3 12 9 12 12 0 17 -6 13 -18z m-86
-2 c13 2 24 0 24 -4 0 -14 -53 -8 -56 6 -1 7 0 8 2 3 3 -5 16 -7 30 -5z m144
-2 c0 -8 -19 -13 -24 -6 -3 5 1 9 9 9 8 0 15 -2 15 -3z m-226 -26 c-5 -8 -2
-9 9 -5 23 9 21 0 -2 -13 -16 -8 -19 -7 -16 8 5 23 4 22 11 22 3 0 2 -5 -2
-12z m-27 -30 c-3 -8 -6 -5 -6 6 -1 11 2 17 5 13 3 -3 4 -12 1 -19z m120 0
c-3 -8 -6 -5 -6 6 -1 11 2 17 5 13 3 -3 4 -12 1 -19z m-30 -23 c0 -8 -5 -11
-10 -8 -7 4 -8 -1 -3 -12 5 -15 4 -16 -9 -5 -16 13 -21 35 -6 25 5 -3 12 -1
16 5 9 14 12 13 12 -5z m27 -50 c-10 -8 -23 -15 -28 -15 -6 0 -1 7 10 15 10 8
23 15 28 15 6 0 1 -7 -10 -15z m-44 -29 c0 -3 -4 -8 -10 -11 -5 -3 -10 -1 -10
4 0 6 5 11 10 11 6 0 10 -2 10 -4z"/>
<path d="M786 1573 c-59 -18 -92 -37 -129 -77 -103 -113 -102 -282 2 -386 66
-65 110 -84 201 -84 62 -1 84 4 126 26 204 107 204 400 -1 502 -62 30 -135 37
-199 19z"/>
<path d="M1165 1085 c-16 -25 -43 -54 -58 -66 -27 -20 -28 -22 -11 -40 9 -10
21 -16 25 -13 5 3 9 -4 9 -15 0 -12 5 -21 11 -21 5 0 7 5 3 12 -4 7 -3 8 5 4
6 -4 9 -11 6 -15 -7 -12 42 -54 54 -47 5 4 13 1 17 -5 4 -8 3 -9 -4 -5 -25 15
-10 -12 24 -44 19 -19 45 -45 56 -57 12 -12 25 -20 29 -17 5 3 6 -3 2 -12 -5
-13 -3 -16 10 -11 12 4 14 2 10 -10 -5 -13 -2 -15 11 -10 9 4 15 3 11 -2 -7
-12 64 -83 76 -76 4 3 11 0 15 -6 4 -8 3 -9 -4 -5 -7 4 -12 2 -12 -3 0 -6 9
-11 20 -11 11 0 20 -5 20 -11 0 -5 -5 -7 -12 -3 -7 4 -2 -6 10 -23 12 -17 19
-33 15 -37 -3 -3 -2 -6 4 -6 21 0 1 -38 -25 -51 -40 -19 -242 -21 -295 -3 -58
19 -165 119 -202 185 -27 50 -29 62 -29 164 l-1 110 -95 -1 -95 -1 0 -109 c-1
-127 -15 -165 -91 -243 -69 -71 -89 -121 -89 -216 0 -62 5 -89 22 -120 72
-136 233 -194 365 -132 29 13 76 46 103 71 80 76 120 89 255 89 134 0 158 -9
255 -94 70 -61 125 -88 186 -91 173 -8 304 113 302 282 0 110 -57 201 -155
251 -47 24 -198 42 -198 24 0 -6 -3 -6 -8 1 -4 6 -27 21 -52 32 -25 12 -42 21
-38 22 4 0 0 9 -9 19 -9 11 -21 17 -26 14 -6 -3 -7 -2 -4 4 7 11 -38 55 -47
46 -3 -4 -6 -1 -6 6 0 7 -7 20 -16 28 -14 14 -19 15 -38 3 -20 -12 -20 -12 -4
6 13 16 14 21 3 31 -7 6 -16 9 -19 6 -3 -4 -6 0 -6 7 0 15 -89 106 -101 103
-5 -2 -8 3 -6 10 1 6 -4 11 -11 9 -6 -1 -11 2 -10 7 3 7 -116 132 -125 131 -1
0 -15 -21 -32 -45z m41 -19 c0 -14 -3 -23 -7 -20 -6 3 -6 22 0 42 3 10 7 -2 7
-22z m39 -5 c3 -5 0 -13 -6 -17 -7 -4 -9 -3 -5 4 3 5 0 13 -6 15 -9 4 -10 6
-1 6 6 1 14 -3 18 -8z m-68 -7 c-3 -3 -12 -4 -19 -1 -8 3 -5 6 6 6 11 1 17 -2
13 -5z m-7 -50 c-5 -12 -7 -25 -4 -28 2 -3 1 -4 -3 -1 -12 9 -9 52 3 52 9 0
10 -7 4 -23z m-25 7 c3 -5 2 -12 -3 -15 -5 -3 -9 1 -9 9 0 17 3 19 12 6z m139
-3 c-5 -7 -2 -9 8 -6 8 4 15 1 15 -7 0 -8 -7 -11 -15 -7 -11 4 -13 1 -7 -8 5
-8 4 -11 -3 -7 -5 4 -9 15 -7 25 5 23 4 22 11 22 3 0 2 -5 -2 -12z m-97 -20
c-3 -8 -6 -5 -6 6 -1 11 2 17 5 13 3 -3 4 -12 1 -19z m66 -23 c9 2 17 -1 17
-7 0 -5 -6 -8 -12 -5 -7 2 -20 1 -28 -4 -11 -5 -16 -2 -16 11 0 12 4 16 11 11
5 -5 18 -7 28 -6z m114 -31 c-3 -3 -12 -4 -19 -1 -8 3 -5 6 6 6 11 1 17 -2 13
-5z m-47 -14 c12 -7 10 -9 -8 -7 -12 0 -22 5 -22 9 0 11 12 10 30 -2z m53 -14
c6 -15 -17 -16 -30 -1 -4 4 -2 5 5 1 6 -4 12 -2 12 3 0 15 7 14 13 -3z m-87
-21 c1 -8 -1 -17 -5 -19 -4 -3 -7 6 -7 19 0 25 8 25 12 0z m-29 -7 c-3 -8 -6
-5 -6 6 -1 11 2 17 5 13 3 -3 4 -12 1 -19z m50 -10 c-3 -8 -6 -5 -6 6 -1 11 2
17 5 13 3 -3 4 -12 1 -19z m53 7 c0 -2 -6 -5 -13 -8 -8 -3 -14 1 -14 8 0 7 6
11 14 8 7 -3 13 -6 13 -8z m63 1 c4 -10 1 -13 -8 -9 -8 3 -12 9 -9 14 7 12 11
11 17 -5z m-153 -38 c0 -4 -4 -8 -9 -8 -6 0 -12 4 -15 8 -3 5 1 9 9 9 8 0 15
-4 15 -9z m76 -37 c0 -15 -3 -17 -18 -7 -17 10 -17 11 0 18 9 3 17 7 17 7 1 1
1 -7 1 -18z m74 3 c0 -8 -19 -13 -24 -6 -3 5 1 9 9 9 8 0 15 -2 15 -3z m30 -4
c0 -5 -2 -10 -4 -10 -3 0 -8 5 -11 10 -3 6 -1 10 4 10 6 0 11 -4 11 -10z m33
-23 c-4 -6 0 -8 9 -4 17 6 19 -16 3 -30 -4 -5 -5 -2 0 6 6 11 4 13 -11 7 -10
-4 -15 -4 -11 0 4 4 2 12 -3 19 -7 8 -5 12 5 12 8 0 11 -5 8 -10z m-113 -11
c0 -3 -4 -8 -10 -11 -5 -3 -10 -1 -10 4 0 6 5 11 10 11 6 0 10 -2 10 -4z m70
-11 c0 -2 -6 -5 -13 -8 -8 -3 -14 1 -14 8 0 7 6 11 14 8 7 -3 13 -6 13 -8z
m100 0 c11 -13 10 -14 -4 -9 -9 3 -16 10 -16 15 0 13 6 11 20 -6z m-55 -24 c3
-5 2 -12 -3 -15 -5 -3 -9 1 -9 9 0 17 3 19 12 6z m120 -41 c3 -6 -1 -7 -9 -4
-18 7 -21 14 -7 14 6 0 13 -4 16 -10z m-175 -10 c0 -5 -4 -10 -10 -10 -5 0
-10 5 -10 10 0 6 5 10 10 10 6 0 10 -4 10 -10z m103 -17 c-7 -2 -19 -2 -25 0
-7 3 -2 5 12 5 14 0 19 -2 13 -5z m80 -10 c-4 -10 -2 -14 4 -10 5 3 10 -1 10
-9 0 -13 -2 -13 -15 0 -8 8 -11 19 -8 25 11 17 16 13 9 -6z m-79 -12 c3 -4 -4
-7 -14 -6 -27 2 -33 10 -10 12 11 1 22 -2 24 -6z m67 -34 c-8 -8 -14 -7 -23 2
-11 10 -9 11 6 5 15 -6 17 -4 11 6 -6 9 -4 11 4 5 9 -5 10 -10 2 -18z m9 -21
c0 -2 -7 -7 -16 -10 -8 -3 -12 -2 -9 4 6 10 25 14 25 6z"/>
</g>
</svg>
